  0
SECTION
  2
HEADER
  9
$ACADVER
  1
AC1009
  9
$INSBASE
 10
0.0
 20
0.0
 30
0.0
  9
$EXTMIN
 10
365.07055829496881
 20
249.0267654381511
 30
-0.0015258207003583
  9
$EXTMAX
 10
529.06347779308385
 20
438.70439658991552
 30
0.0000000349246037
  9
$LIMMIN
 10
0.0
 20
0.0
  9
$LIMMAX
 10
420.0
 20
297.0
  9
$ORTHOMODE
 70
     0
  9
$REGENMODE
 70
     1
  9
$FILLMODE
 70
     1
  9
$QTEXTMODE
 70
     0
  9
$MIRRTEXT
 70
     0
  9
$DRAGMODE
 70
     2
  9
$LTSCALE
 40
1.0
  9
$OSMODE
 70
    37
  9
$ATTMODE
 70
     1
  9
$TEXTSIZE
 40
2.5
  9
$TRACEWID
 40
1.0
  9
$TEXTSTYLE
  7
STANDARD
  9
$CLAYER
  8
0
  9
$CELTYPE
  6
BYLAYER
  9
$CECOLOR
 62
   256
  9
$DIMSCALE
 40
1.0
  9
$DIMASZ
 40
2.5
  9
$DIMEXO
 40
0.625
  9
$DIMDLI
 40
3.75
  9
$DIMRND
 40
0.0
  9
$DIMDLE
 40
0.0
  9
$DIMEXE
 40
1.25
  9
$DIMTP
 40
0.0
  9
$DIMTM
 40
0.0
  9
$DIMTXT
 40
2.5
  9
$DIMCEN
 40
2.5
  9
$DIMTSZ
 40
0.0
  9
$DIMTOL
 70
     0
  9
$DIMLIM
 70
     0
  9
$DIMTIH
 70
     0
  9
$DIMTOH
 70
     0
  9
$DIMSE1
 70
     0
  9
$DIMSE2
 70
     0
  9
$DIMTAD
 70
     1
  9
$DIMZIN
 70
     8
  9
$DIMBLK
  1

  9
$DIMASO
 70
     1
  9
$DIMSHO
 70
     1
  9
$DIMPOST
  1

  9
$DIMAPOST
  1

  9
$DIMALT
 70
     0
  9
$DIMALTD
 70
     3
  9
$DIMALTF
 40
0.03937007874016
  9
$DIMLFAC
 40
1.0
  9
$DIMTOFL
 70
     1
  9
$DIMTVP
 40
0.0
  9
$DIMTIX
 70
     0
  9
$DIMSOXD
 70
     0
  9
$DIMSAH
 70
     0
  9
$DIMBLK1
  1

  9
$DIMBLK2
  1

  9
$DIMSTYLE
  2
ISO-25
  9
$DIMCLRD
 70
     0
  9
$DIMCLRE
 70
     0
  9
$DIMCLRT
 70
     0
  9
$DIMTFAC
 40
1.0
  9
$DIMGAP
 40
0.625
  9
$LUNITS
 70
     2
  9
$LUPREC
 70
     4
  9
$SKETCHINC
 40
1.0
  9
$FILLETRAD
 40
2.0
  9
$AUNITS
 70
     0
  9
$AUPREC
 70
     0
  9
$MENU
  1
.
  9
$ELEVATION
 40
0.0
  9
$PELEVATION
 40
0.0
  9
$THICKNESS
 40
0.0
  9
$LIMCHECK
 70
     0
  9
$BLIPMODE
 70
     0
  9
$CHAMFERA
 40
0.0
  9
$CHAMFERB
 40
0.0
  9
$SKPOLY
 70
     0
  9
$TDCREATE
 40
2457416.5012660068
  9
$TDUPDATE
 40
2457441.9519305099
  9
$TDINDWG
 40
0.2515604398
  9
$TDUSRTIMER
 40
0.2515604167
  9
$USRTIMER
 70
     1
  9
$ANGBASE
 50
0.0
  9
$ANGDIR
 70
     0
  9
$PDMODE
 70
     0
  9
$PDSIZE
 40
0.0
  9
$PLINEWID
 40
0.0
  9
$COORDS
 70
     1
  9
$SPLFRAME
 70
     0
  9
$SPLINETYPE
 70
     6
  9
$SPLINESEGS
 70
     8
  9
$ATTDIA
 70
     1
  9
$ATTREQ
 70
     1
  9
$HANDLING
 70
     1
  9
$HANDSEED
  5
5B8
  9
$SURFTAB1
 70
     6
  9
$SURFTAB2
 70
     6
  9
$SURFTYPE
 70
     6
  9
$SURFU
 70
     6
  9
$SURFV
 70
     6
  9
$UCSNAME
  2

  9
$UCSORG
 10
0.0
 20
0.0
 30
0.0
  9
$UCSXDIR
 10
1.0
 20
0.0
 30
0.0
  9
$UCSYDIR
 10
0.0
 20
1.0
 30
0.0
  9
$PUCSNAME
  2

  9
$PUCSORG
 10
0.0
 20
0.0
 30
0.0
  9
$PUCSXDIR
 10
1.0
 20
0.0
 30
0.0
  9
$PUCSYDIR
 10
0.0
 20
1.0
 30
0.0
  9
$USERI1
 70
     0
  9
$USERI2
 70
     0
  9
$USERI3
 70
     0
  9
$USERI4
 70
     0
  9
$USERI5
 70
     0
  9
$USERR1
 40
0.0
  9
$USERR2
 40
0.0
  9
$USERR3
 40
0.0
  9
$USERR4
 40
0.0
  9
$USERR5
 40
0.0
  9
$WORLDVIEW
 70
     1
  9
$SHADEDGE
 70
     3
  9
$SHADEDIF
 70
    70
  9
$TILEMODE
 70
     1
  9
$MAXACTVP
 70
    64
  9
$PLIMCHECK
 70
     0
  9
$PEXTMIN
 10
0.0
 20
0.0
 30
0.0
  9
$PEXTMAX
 10
0.0
 20
0.0
 30
0.0
  9
$PLIMMIN
 10
0.0
 20
0.0
  9
$PLIMMAX
 10
12.0
 20
9.0
  9
$UNITMODE
 70
     0
  9
$VISRETAIN
 70
     1
  9
$PLINEGEN
 70
     0
  9
$PSLTSCALE
 70
     1
  0
ENDSEC
  0
SECTION
  2
TABLES
  0
TABLE
  2
VPORT
 70
     1
  0
VPORT
  2
*ACTIVE
 70
     0
 10
0.0
 20
0.0
 11
1.0
 21
1.0
 12
447.06701804402633
 22
343.8655810140333
 13
0.0
 23
0.0
 14
10.0
 24
10.0
 15
10.0
 25
10.0
 16
0.0
 26
0.0
 36
1.0
 17
0.0
 27
0.0
 37
0.0
 40
233.94584332170081
 41
2.2541528239202648
 42
50.0
 43
0.0
 44
0.0
 50
0.0
 51
0.0
 71
     0
 72
  1000
 73
     1
 74
     3
 75
     0
 76
     1
 77
     0
 78
     0
  0
ENDTAB
  0
TABLE
  2
LTYPE
 70
     2
  0
LTYPE
  2
CONTINUOUS
 70
     0
  3
Solid line
 72
    65
 73
     0
 40
0.0
  0
ENDTAB
  0
TABLE
  2
LAYER
 70
     1
  0
LAYER
  2
0
 70
     0
 62
     7
  6
CONTINUOUS
  0
ENDTAB
  0
TABLE
  2
STYLE
 70
     2
  0
STYLE
  2
STANDARD
 70
     0
 40
0.0
 41
1.0
 50
0.0
 71
     0
 42
2.5
  3
txt
  4

  0
STYLE
  2
ANNOTATIVE
 70
     0
 40
0.0
 41
1.0
 50
0.0
 71
     0
 42
2.5
  3
txt
  4

  0
ENDTAB
  0
TABLE
  2
VIEW
 70
     0
  0
ENDTAB
  0
TABLE
  2
UCS
 70
     0
  0
ENDTAB
  0
TABLE
  2
APPID
 70
     9
  0
APPID
  2
ACAD
 70
     0
  0
APPID
  2
ACAD_PSEXT
 70
     0
  0
APPID
  2
ACADANNOPO
 70
     0
  0
APPID
  2
ACADANNOTATIVE
 70
     0
  0
APPID
  2
ACAD_DSTYLE_DIMJAG
 70
     0
  0
APPID
  2
ACAD_DSTYLE_DIMTALN
 70
     0
  0
APPID
  2
ACAD_MLEADERVER
 70
     0
  0
APPID
  2
ACAD_NAV_VCDISPLAY
 70
     0
  0
APPID
  2
ACAD_EXEMPT_FROM_CAD_STANDARDS
 70
     0
  0
ENDTAB
  0
TABLE
  2
DIMSTYLE
 70
     4
  0
DIMSTYLE
  2
STANDARD
 70
     0
  3

  4

  5

  6

  7

 40
1.0
 41
0.18
 42
0.0625
 43
0.38
 44
0.18
 45
0.0
 46
0.0
 47
0.0
 48
0.0
140
0.18
141
0.09
142
0.0
143
25.399999999999999
144
1.0
145
0.0
146
1.0
147
0.09
 71
     0
 72
     0
 73
     1
 74
     1
 75
     0
 76
     0
 77
     0
 78
     0
170
     0
171
     2
172
     0
173
     0
174
     0
175
     0
176
     0
177
     0
178
     0
  0
DIMSTYLE
  2
ANNOTATIVE
 70
     0
  3

  4

  5

  6

  7

 40
0.0
 41
2.5
 42
0.625
 43
3.75
 44
1.25
 45
0.0
 46
0.0
 47
0.0
 48
0.0
140
2.5
141
2.5
142
0.0
143
0.03937007874016
144
1.0
145
0.0
146
1.0
147
0.625
 71
     0
 72
     0
 73
     0
 74
     0
 75
     0
 76
     0
 77
     1
 78
     8
170
     0
171
     3
172
     1
173
     0
174
     0
175
     0
176
     0
177
     0
178
     0
  0
DIMSTYLE
  2
ISO-25
 70
     0
  3

  4

  5

  6

  7

 40
1.0
 41
2.5
 42
0.625
 43
3.75
 44
1.25
 45
0.0
 46
0.0
 47
0.0
 48
0.0
140
2.5
141
2.5
142
0.0
143
0.03937007874016
144
1.0
145
0.0
146
1.0
147
0.625
 71
     0
 72
     0
 73
     0
 74
     0
 75
     0
 76
     0
 77
     1
 78
     8
170
     0
171
     3
172
     1
173
     0
174
     0
175
     0
176
     0
177
     0
178
     0
  0
ENDTAB
  0
ENDSEC
  0
SECTION
  2
BLOCKS
  0
BLOCK
  8
0
  2
$MODEL_SPACE
 70
     0
 10
0.0
 20
0.0
 30
0.0
  3
$MODEL_SPACE
  1

  0
ENDBLK
  5
21
  8
0
  0
BLOCK
 67
     1
  8
0
  2
$PAPER_SPACE
 70
     0
 10
0.0
 20
0.0
 30
0.0
  3
$PAPER_SPACE
  1

  0
ENDBLK
  5
D5
 67
     1
  8
0
  0
BLOCK
  8
0
  2
*U1
 70
     1
 10
0.0
 20
0.0
 30
0.0
  3
*U1
  1

  0
LINE
  5
3B7
  8
0
 10
38.99999999999995
 20
-5.0000000050000031
 30
0.0
 11
39.0
 21
-0.000000005000004
 31
0.0
  0
LINE
  5
3B8
  8
0
 10
34.0
 20
4.999999994999996
 30
0.0
 11
-34.0
 21
4.999999994999996
 31
0.0
  0
LINE
  5
3B9
  8
0
 10
39.0
 20
-5.0000000050000031
 30
0.0
 11
-39.0
 21
-5.0000000050000031
 31
0.0
  0
ARC
  5
3BA
  8
0
 10
34.0
 20
-0.000000005000004
 30
0.0
 40
5.0
 50
0.0
 51
90.0
  0
ARC
  5
3BB
  8
0
 10
-34.0
 20
-0.000000005000004
 30
0.0
 40
5.0
 50
90.0
 51
180.0
  0
LINE
  5
3BC
  8
0
 10
-39.0
 20
-0.000000005000004
 30
0.0
 11
-39.000000000000057
 21
-5.0000000050000031
 31
0.0
  0
CIRCLE
  5
3BD
  8
0
 10
-34.0
 20
-0.000000005000004
 30
0.0
 40
2.0
  0
CIRCLE
  5
3BE
  8
0
 10
34.0
 20
-0.000000005000004
 30
0.0
 40
2.0
  0
ENDBLK
  5
3B2
  8
0
  0
BLOCK
  8
0
  2
*U3
 70
     1
 10
0.0
 20
0.0
 30
0.0
  3
*U3
  1

  0
LINE
  5
3D8
  8
0
 10
38.99999999999995
 20
-5.0000000050000031
 30
0.0
 11
39.0
 21
-0.000000005000004
 31
0.0
  0
LINE
  5
3D9
  8
0
 10
34.0
 20
4.999999994999996
 30
0.0
 11
-34.0
 21
4.999999994999996
 31
0.0
  0
LINE
  5
3DA
  8
0
 10
39.0
 20
-5.0000000050000031
 30
0.0
 11
-39.0
 21
-5.0000000050000031
 31
0.0
  0
ARC
  5
3DB
  8
0
 10
34.0
 20
-0.000000005000004
 30
0.0
 40
5.0
 50
0.0
 51
90.0
  0
ARC
  5
3DC
  8
0
 10
-34.0
 20
-0.000000005000004
 30
0.0
 40
5.0
 50
90.0
 51
180.0
  0
LINE
  5
3DD
  8
0
 10
-39.0
 20
-0.000000005000004
 30
0.0
 11
-39.000000000000057
 21
-5.0000000050000031
 31
0.0
  0
CIRCLE
  5
3DE
  8
0
 10
-34.0
 20
-0.000000005000004
 30
0.0
 40
2.0
  0
CIRCLE
  5
3DF
  8
0
 10
34.0
 20
-0.000000005000004
 30
0.0
 40
2.0
  0
ENDBLK
  5
3E0
  8
0
  0
ENDSEC
  0
SECTION
  2
ENTITIES
  0
LINE
  5
265
  8
0
 10
455.0
 20
250.0
 30
0.0
 11
523.0
 21
250.0
 31
0.0
  0
LINE
  5
266
  8
0
 10
528.0
 20
255.0
 30
0.0
 11
528.0
 21
297.0
 31
0.0
  0
LINE
  5
267
  8
0
 10
523.0
 20
302.0
 30
0.0
 11
455.0
 21
302.0
 31
0.0
  0
LINE
  5
268
  8
0
 10
450.0
 20
297.0
 30
0.0
 11
450.0
 21
285.5
 31
0.0
  0
LINE
  5
269
  8
0
 10
450.0
 20
260.0
 30
0.0
 11
450.0
 21
255.0
 31
0.0
  0
ARC
  5
279
  8
0
 10
455.0
 20
297.0
 30
0.0
 40
5.0
 50
90.0
 51
180.0
  0
ARC
  5
27A
  8
0
 10
523.0
 20
297.0
 30
0.0
 40
5.0
 50
0.0
 51
90.0
  0
ARC
  5
27B
  8
0
 10
523.0
 20
255.0
 30
0.0
 40
5.0
 50
270.0
 51
0.0
  0
ARC
  5
27C
  8
0
 10
455.0
 20
255.0
 30
0.0
 40
5.0
 50
180.0
 51
270.0
  0
CIRCLE
  5
285
  8
0
 10
455.0
 20
297.0
 30
0.0
 40
2.0
  0
CIRCLE
  5
286
  8
0
 10
455.0
 20
255.0
 30
0.0
 40
2.0
  0
CIRCLE
  5
287
  8
0
 10
523.0
 20
255.0
 30
0.0
 40
2.0
  0
CIRCLE
  5
288
  8
0
 10
523.0
 20
297.0
 30
0.0
 40
2.0
  0
CIRCLE
  5
289
  8
0
 10
513.75
 20
263.5
 30
0.0
 40
1.5
  0
CIRCLE
  5
28A
  8
0
 10
461.74999999999989
 20
263.5
 30
0.0
 40
1.5
  0
CIRCLE
  5
28B
  8
0
 10
461.74999999999989
 20
288.5
 30
0.0
 40
1.5
  0
CIRCLE
  5
28C
  8
0
 10
513.75
 20
288.5
 30
0.0
 40
1.5
  0
LINE
  5
28F
  8
0
 10
523.0
 20
250.0
 30
0.0
 11
455.0
 21
250.0
 31
0.0
  0
LINE
  5
290
  8
0
 10
523.0
 20
250.0
 30
0.0
 11
455.0
 21
250.0
 31
0.0
  0
POINT
  5
298
  8
0
 10
523.0
 20
250.0
 30
0.0
  0
LINE
  5
2B6
  8
0
 10
455.0
 20
304.70755583026431
 30
0.0
 11
523.0
 21
304.70755583026431
 31
0.0
  0
LINE
  5
2B7
  8
0
 10
528.0
 20
309.70755583026431
 30
0.0
 11
528.0
 21
351.7075558302642
 31
0.0
  0
ARC
  5
2B8
  8
0
 10
523.0
 20
309.70755583026431
 30
0.0
 40
5.0
 50
270.0
 51
0.0
  0
LINE
  5
2B9
  8
0
 10
523.0
 20
356.70755583026431
 30
0.0
 11
455.0
 21
356.70755583026431
 31
0.0
  0
LINE
  5
2BC
  8
0
 10
523.0
 20
304.70755583026431
 30
0.0
 11
455.0
 21
304.70755583026431
 31
0.0
  0
LINE
  5
2BD
  8
0
 10
523.0
 20
304.70755583026431
 30
0.0
 11
455.0
 21
304.70755583026431
 31
0.0
  0
ARC
  5
2BE
  8
0
 10
523.0
 20
351.7075558302642
 30
0.0
 40
5.0
 50
0.0
 51
90.0
  0
ARC
  5
2BF
  8
0
 10
455.0
 20
351.7075558302642
 30
0.0
 40
5.0
 50
90.0
 51
180.0
  0
LINE
  5
2C0
  8
0
 10
450.0
 20
351.7075558302642
 30
0.0
 11
450.0
 21
314.7075558302642
 31
0.0
  0
LINE
  5
2C2
  8
0
 10
450.0
 20
314.7075558302642
 30
0.0
 11
450.0
 21
309.70755583026431
 31
0.0
  0
ARC
  5
2C3
  8
0
 10
455.0
 20
309.70755583026431
 30
0.0
 40
5.0
 50
180.0
 51
270.0
  0
CIRCLE
  5
2C4
  8
0
 10
455.0
 20
351.7075558302642
 30
0.0
 40
2.0
  0
CIRCLE
  5
2C5
  8
0
 10
455.0
 20
309.70755583026431
 30
0.0
 40
2.0
  0
CIRCLE
  5
2C6
  8
0
 10
523.0
 20
309.70755583026431
 30
0.0
 40
2.0
  0
CIRCLE
  5
2C7
  8
0
 10
523.0
 20
351.7075558302642
 30
0.0
 40
2.0
  0
POINT
  5
2CC
  8
0
 10
523.0
 20
304.70755583026431
 30
0.0
  0
LINE
  5
2EE
  8
0
 10
501.0
 20
339.75755583026432
 30
0.0
 11
501.0
 21
326.25755583026432
 31
0.0
  0
LINE
  5
2EF
  8
0
 10
476.99999999999977
 20
339.75755583026432
 30
0.0
 11
477.0
 21
326.25755583026432
 31
0.0
  0
CIRCLE
  5
2F9
  8
0
 10
500.49999999999989
 20
342.00755583026421
 30
0.0
 40
1.1000000000000001
  0
CIRCLE
  5
2FD
  8
0
 10
477.30000000000001
 20
342.00755583026421
 30
0.0
 40
1.1000000000000001
  0
CIRCLE
  5
2FE
  8
0
 10
500.49999999999989
 20
320.00755583026432
 30
0.0
 40
1.1000000000000001
  0
CIRCLE
  5
2FF
  8
0
 10
477.30000000000001
 20
320.00755583026432
 30
0.0
 40
1.1000000000000001
  0
LINE
  5
351
  8
0
 10
450.0
 20
266.5
 30
0.0
 11
450.0
 21
260.0
 31
0.0
  0
LINE
  5
352
  8
0
 10
460.0
 20
268.5
 30
0.0
 11
460.0
 21
283.5
 31
0.0
  0
LINE
  5
449
  8
0
 10
443.08416873627891
 20
426.92984337225607
 30
0.0
 11
443.08416873627903
 21
431.92984337225602
 31
0.0
  0
LINE
  5
44A
  8
0
 10
438.08416873627903
 20
436.92984337225602
 30
0.0
 11
370.08416873627903
 21
436.92984337225602
 31
0.0
  0
LINE
  5
44B
  8
0
 10
443.08416873627903
 20
426.92984337225607
 30
0.0
 11
365.08416873627903
 21
426.92984337225607
 31
0.0
  0
ARC
  5
44C
  8
0
 10
438.08416873627903
 20
431.92984337225602
 30
0.0
 40
5.0
 50
0.0
 51
90.0
  0
ARC
  5
44D
  8
0
 10
370.08416873627903
 20
431.92984337225602
 30
0.0
 40
5.0
 50
90.0
 51
180.0
  0
LINE
  5
44E
  8
0
 10
365.08416873627903
 20
431.92984337225602
 30
0.0
 11
365.08416873627903
 21
426.92984337225607
 31
0.0
  0
CIRCLE
  5
44F
  8
0
 10
370.08416873627903
 20
431.92984337225602
 30
0.0
 40
2.0
  0
CIRCLE
  5
450
  8
0
 10
438.08416873627903
 20
431.92984337225602
 30
0.0
 40
2.0
  0
LINE
  5
451
  8
0
 10
443.08416873627891
 20
415.13310875267632
 30
0.0
 11
443.08416873627903
 21
420.13310875267638
 31
0.0
  0
LINE
  5
452
  8
0
 10
438.08416873627903
 20
425.13310875267638
 30
0.0
 11
370.08416873627903
 21
425.13310875267638
 31
0.0
  0
LINE
  5
453
  8
0
 10
443.08416873627903
 20
415.13310875267632
 30
0.0
 11
365.08416873627903
 21
415.13310875267632
 31
0.0
  0
ARC
  5
454
  8
0
 10
438.08416873627903
 20
420.13310875267638
 30
0.0
 40
5.0
 50
0.0
 51
90.0
  0
ARC
  5
455
  8
0
 10
370.08416873627903
 20
420.13310875267638
 30
0.0
 40
5.0
 50
90.0
 51
180.0
  0
LINE
  5
456
  8
0
 10
365.08416873627903
 20
420.13310875267638
 30
0.0
 11
365.08416873627903
 21
415.13310875267632
 31
0.0
  0
CIRCLE
  5
457
  8
0
 10
370.08416873627903
 20
420.13310875267638
 30
0.0
 40
2.0
  0
CIRCLE
  5
458
  8
0
 10
438.08416873627903
 20
420.13310875267638
 30
0.0
 40
2.0
  0
LINE
  5
459
  8
0
 10
443.08416873627891
 20
403.33637413309663
 30
0.0
 11
443.08416873627903
 21
408.33637413309663
 31
0.0
  0
LINE
  5
45A
  8
0
 10
438.08416873627903
 20
413.33637413309663
 30
0.0
 11
370.08416873627903
 21
413.33637413309663
 31
0.0
  0
LINE
  5
45B
  8
0
 10
443.08416873627903
 20
403.33637413309663
 30
0.0
 11
365.08416873627903
 21
403.33637413309663
 31
0.0
  0
ARC
  5
45C
  8
0
 10
438.08416873627903
 20
408.33637413309663
 30
0.0
 40
5.0
 50
0.0
 51
90.0
  0
ARC
  5
45D
  8
0
 10
370.08416873627903
 20
408.33637413309663
 30
0.0
 40
5.0
 50
90.0
 51
180.0
  0
LINE
  5
45E
  8
0
 10
365.08416873627903
 20
408.33637413309663
 30
0.0
 11
365.08416873627903
 21
403.33637413309663
 31
0.0
  0
CIRCLE
  5
45F
  8
0
 10
370.08416873627903
 20
408.33637413309663
 30
0.0
 40
2.0
  0
CIRCLE
  5
460
  8
0
 10
438.08416873627903
 20
408.33637413309663
 30
0.0
 40
2.0
  0
LINE
  5
461
  8
0
 10
443.08416873627891
 20
391.53963951351699
 30
0.0
 11
443.08416873627903
 21
396.53963951351699
 31
0.0
  0
LINE
  5
462
  8
0
 10
438.08416873627903
 20
401.53963951351687
 30
0.0
 11
370.08416873627903
 21
401.53963951351687
 31
0.0
  0
LINE
  5
463
  8
0
 10
443.08416873627903
 20
391.53963951351699
 30
0.0
 11
365.08416873627903
 21
391.53963951351699
 31
0.0
  0
ARC
  5
464
  8
0
 10
438.08416873627903
 20
396.53963951351699
 30
0.0
 40
5.0
 50
0.0
 51
90.0
  0
ARC
  5
465
  8
0
 10
370.08416873627903
 20
396.53963951351699
 30
0.0
 40
5.0
 50
90.0
 51
180.0
  0
LINE
  5
466
  8
0
 10
365.08416873627903
 20
396.53963951351699
 30
0.0
 11
365.08416873627903
 21
391.53963951351699
 31
0.0
  0
CIRCLE
  5
467
  8
0
 10
370.08416873627903
 20
396.53963951351699
 30
0.0
 40
2.0
  0
CIRCLE
  5
468
  8
0
 10
438.08416873627903
 20
396.53963951351699
 30
0.0
 40
2.0
  0
LINE
  5
469
  8
0
 10
443.08416873627891
 20
379.74290489393729
 30
0.0
 11
443.08416873627903
 21
384.74290489393729
 31
0.0
  0
LINE
  5
46A
  8
0
 10
438.08416873627903
 20
389.74290489393729
 30
0.0
 11
370.08416873627903
 21
389.74290489393729
 31
0.0
  0
LINE
  5
46B
  8
0
 10
443.08416873627903
 20
379.74290489393729
 30
0.0
 11
365.08416873627903
 21
379.74290489393729
 31
0.0
  0
ARC
  5
46C
  8
0
 10
438.08416873627903
 20
384.74290489393729
 30
0.0
 40
5.0
 50
0.0
 51
90.0
  0
ARC
  5
46D
  8
0
 10
370.08416873627903
 20
384.74290489393729
 30
0.0
 40
5.0
 50
90.0
 51
180.0
  0
LINE
  5
46E
  8
0
 10
365.08416873627903
 20
384.74290489393729
 30
0.0
 11
365.08416873627903
 21
379.74290489393729
 31
0.0
  0
CIRCLE
  5
46F
  8
0
 10
370.08416873627903
 20
384.74290489393729
 30
0.0
 40
2.0
  0
CIRCLE
  5
470
  8
0
 10
438.08416873627903
 20
384.74290489393729
 30
0.0
 40
2.0
  0
LINE
  5
471
  8
0
 10
443.08416873627891
 20
367.9461702743576
 30
0.0
 11
443.08416873627903
 21
372.9461702743576
 31
0.0
  0
LINE
  5
472
  8
0
 10
438.08416873627903
 20
377.9461702743576
 30
0.0
 11
370.08416873627903
 21
377.9461702743576
 31
0.0
  0
LINE
  5
473
  8
0
 10
443.08416873627903
 20
367.9461702743576
 30
0.0
 11
365.08416873627903
 21
367.9461702743576
 31
0.0
  0
ARC
  5
474
  8
0
 10
438.08416873627903
 20
372.9461702743576
 30
0.0
 40
5.0
 50
0.0
 51
90.0
  0
ARC
  5
475
  8
0
 10
370.08416873627903
 20
372.9461702743576
 30
0.0
 40
5.0
 50
90.0
 51
180.0
  0
LINE
  5
476
  8
0
 10
365.08416873627903
 20
372.9461702743576
 30
0.0
 11
365.08416873627903
 21
367.9461702743576
 31
0.0
  0
CIRCLE
  5
477
  8
0
 10
370.08416873627903
 20
372.9461702743576
 30
0.0
 40
2.0
  0
CIRCLE
  5
478
  8
0
 10
438.08416873627903
 20
372.9461702743576
 30
0.0
 40
2.0
  0
LINE
  5
479
  8
0
 10
443.08416873627891
 20
356.1494356547779
 30
0.0
 11
443.08416873627903
 21
361.1494356547779
 31
0.0
  0
LINE
  5
47A
  8
0
 10
438.08416873627903
 20
366.1494356547779
 30
0.0
 11
370.08416873627903
 21
366.1494356547779
 31
0.0
  0
LINE
  5
47B
  8
0
 10
443.08416873627903
 20
356.1494356547779
 30
0.0
 11
365.08416873627903
 21
356.1494356547779
 31
0.0
  0
ARC
  5
47C
  8
0
 10
438.08416873627903
 20
361.1494356547779
 30
0.0
 40
5.0
 50
0.0
 51
90.0
  0
ARC
  5
47D
  8
0
 10
370.08416873627903
 20
361.1494356547779
 30
0.0
 40
5.0
 50
90.0
 51
180.0
  0
LINE
  5
47E
  8
0
 10
365.08416873627903
 20
361.1494356547779
 30
0.0
 11
365.08416873627903
 21
356.1494356547779
 31
0.0
  0
CIRCLE
  5
47F
  8
0
 10
370.08416873627903
 20
361.1494356547779
 30
0.0
 40
2.0
  0
CIRCLE
  5
480
  8
0
 10
438.08416873627903
 20
361.1494356547779
 30
0.0
 40
2.0
  0
LINE
  5
481
  8
0
 10
443.08416873627891
 20
344.35270103519821
 30
0.0
 11
443.08416873627903
 21
349.35270103519821
 31
0.0
  0
LINE
  5
482
  8
0
 10
438.08416873627903
 20
354.35270103519821
 30
0.0
 11
370.08416873627903
 21
354.35270103519821
 31
0.0
  0
LINE
  5
483
  8
0
 10
443.08416873627903
 20
344.35270103519821
 30
0.0
 11
365.08416873627903
 21
344.35270103519821
 31
0.0
  0
ARC
  5
484
  8
0
 10
438.08416873627903
 20
349.35270103519821
 30
0.0
 40
5.0
 50
0.0
 51
90.0
  0
ARC
  5
485
  8
0
 10
370.08416873627903
 20
349.35270103519821
 30
0.0
 40
5.0
 50
90.0
 51
180.0
  0
LINE
  5
486
  8
0
 10
365.08416873627903
 20
349.35270103519821
 30
0.0
 11
365.08416873627903
 21
344.35270103519821
 31
0.0
  0
CIRCLE
  5
487
  8
0
 10
370.08416873627903
 20
349.35270103519821
 30
0.0
 40
2.0
  0
CIRCLE
  5
488
  8
0
 10
438.08416873627903
 20
349.35270103519821
 30
0.0
 40
2.0
  0
LINE
  5
489
  8
0
 10
443.08416873627891
 20
331.60979614126092
 30
0.0
 11
443.08416873627903
 21
336.60979614126092
 31
0.0
  0
LINE
  5
48A
  8
0
 10
438.08416873627903
 20
341.60979614126092
 30
0.0
 11
370.08416873627903
 21
341.60979614126092
 31
0.0
  0
LINE
  5
48B
  8
0
 10
443.08416873627903
 20
331.60979614126092
 30
0.0
 11
365.08416873627903
 21
331.60979614126092
 31
0.0
  0
ARC
  5
48C
  8
0
 10
438.08416873627903
 20
336.60979614126092
 30
0.0
 40
5.0
 50
0.0
 51
90.0
  0
ARC
  5
48D
  8
0
 10
370.08416873627903
 20
336.60979614126092
 30
0.0
 40
5.0
 50
90.0
 51
180.0
  0
LINE
  5
48E
  8
0
 10
365.08416873627903
 20
336.60979614126092
 30
0.0
 11
365.08416873627903
 21
331.60979614126092
 31
0.0
  0
CIRCLE
  5
48F
  8
0
 10
370.08416873627903
 20
336.60979614126092
 30
0.0
 40
2.0
  0
CIRCLE
  5
490
  8
0
 10
438.08416873627903
 20
336.60979614126092
 30
0.0
 40
2.0
  0
LINE
  5
491
  8
0
 10
443.08416873627891
 20
319.81306152168122
 30
0.0
 11
443.08416873627903
 21
324.81306152168122
 31
0.0
  0
LINE
  5
492
  8
0
 10
438.08416873627903
 20
329.81306152168122
 30
0.0
 11
370.08416873627903
 21
329.81306152168122
 31
0.0
  0
LINE
  5
493
  8
0
 10
443.08416873627903
 20
319.81306152168122
 30
0.0
 11
365.08416873627903
 21
319.81306152168122
 31
0.0
  0
ARC
  5
494
  8
0
 10
438.08416873627903
 20
324.81306152168122
 30
0.0
 40
5.0
 50
0.0
 51
90.0
  0
ARC
  5
495
  8
0
 10
370.08416873627903
 20
324.81306152168122
 30
0.0
 40
5.0
 50
90.0
 51
180.0
  0
LINE
  5
496
  8
0
 10
365.08416873627903
 20
324.81306152168122
 30
0.0
 11
365.08416873627903
 21
319.81306152168122
 31
0.0
  0
CIRCLE
  5
497
  8
0
 10
370.08416873627903
 20
324.81306152168122
 30
0.0
 40
2.0
  0
CIRCLE
  5
498
  8
0
 10
438.08416873627903
 20
324.81306152168122
 30
0.0
 40
2.0
  0
LINE
  5
499
  8
0
 10
443.08416873627891
 20
308.01632690210153
 30
0.0
 11
443.08416873627903
 21
313.01632690210153
 31
0.0
  0
LINE
  5
49A
  8
0
 10
438.08416873627903
 20
318.01632690210153
 30
0.0
 11
370.08416873627903
 21
318.01632690210153
 31
0.0
  0
LINE
  5
49B
  8
0
 10
443.08416873627903
 20
308.01632690210153
 30
0.0
 11
365.08416873627903
 21
308.01632690210153
 31
0.0
  0
ARC
  5
49C
  8
0
 10
438.08416873627903
 20
313.01632690210153
 30
0.0
 40
5.0
 50
0.0
 51
90.0
  0
ARC
  5
49D
  8
0
 10
370.08416873627903
 20
313.01632690210153
 30
0.0
 40
5.0
 50
90.0
 51
180.0
  0
LINE
  5
49E
  8
0
 10
365.08416873627903
 20
313.01632690210153
 30
0.0
 11
365.08416873627903
 21
308.01632690210153
 31
0.0
  0
CIRCLE
  5
49F
  8
0
 10
370.08416873627903
 20
313.01632690210153
 30
0.0
 40
2.0
  0
CIRCLE
  5
4A0
  8
0
 10
438.08416873627903
 20
313.01632690210153
 30
0.0
 40
2.0
  0
LINE
  5
4A1
  8
0
 10
443.08416873627891
 20
296.21959228252177
 30
0.0
 11
443.08416873627903
 21
301.21959228252177
 31
0.0
  0
LINE
  5
4A2
  8
0
 10
438.08416873627903
 20
306.21959228252177
 30
0.0
 11
370.08416873627903
 21
306.21959228252177
 31
0.0
  0
LINE
  5
4A3
  8
0
 10
443.08416873627903
 20
296.21959228252177
 30
0.0
 11
365.08416873627903
 21
296.21959228252177
 31
0.0
  0
ARC
  5
4A4
  8
0
 10
438.08416873627903
 20
301.21959228252177
 30
0.0
 40
5.0
 50
0.0
 51
90.0
  0
ARC
  5
4A5
  8
0
 10
370.08416873627903
 20
301.21959228252177
 30
0.0
 40
5.0
 50
90.0
 51
180.0
  0
LINE
  5
4A6
  8
0
 10
365.08416873627903
 20
301.21959228252177
 30
0.0
 11
365.08416873627903
 21
296.21959228252177
 31
0.0
  0
CIRCLE
  5
4A7
  8
0
 10
370.08416873627903
 20
301.21959228252177
 30
0.0
 40
2.0
  0
CIRCLE
  5
4A8
  8
0
 10
438.08416873627903
 20
301.21959228252177
 30
0.0
 40
2.0
  0
LINE
  5
4A9
  8
0
 10
443.08416873627891
 20
284.42285766294208
 30
0.0
 11
443.08416873627903
 21
289.42285766294208
 31
0.0
  0
LINE
  5
4AA
  8
0
 10
438.08416873627903
 20
294.42285766294208
 30
0.0
 11
370.08416873627903
 21
294.42285766294208
 31
0.0
  0
LINE
  5
4AB
  8
0
 10
443.08416873627903
 20
284.42285766294208
 30
0.0
 11
365.08416873627903
 21
284.42285766294208
 31
0.0
  0
ARC
  5
4AC
  8
0
 10
438.08416873627903
 20
289.42285766294208
 30
0.0
 40
5.0
 50
0.0
 51
90.0
  0
ARC
  5
4AD
  8
0
 10
370.08416873627903
 20
289.42285766294208
 30
0.0
 40
5.0
 50
90.0
 51
180.0
  0
LINE
  5
4AE
  8
0
 10
365.08416873627903
 20
289.42285766294208
 30
0.0
 11
365.08416873627903
 21
284.42285766294208
 31
0.0
  0
CIRCLE
  5
4AF
  8
0
 10
370.08416873627903
 20
289.42285766294208
 30
0.0
 40
2.0
  0
CIRCLE
  5
4B0
  8
0
 10
438.08416873627903
 20
289.42285766294208
 30
0.0
 40
2.0
  0
LINE
  5
4B1
  8
0
 10
443.08416873627891
 20
272.6261230433625
 30
0.0
 11
443.08416873627903
 21
277.62612304336238
 31
0.0
  0
LINE
  5
4B2
  8
0
 10
438.08416873627903
 20
282.62612304336238
 30
0.0
 11
370.08416873627903
 21
282.62612304336238
 31
0.0
  0
LINE
  5
4B3
  8
0
 10
443.08416873627903
 20
272.6261230433625
 30
0.0
 11
365.08416873627903
 21
272.6261230433625
 31
0.0
  0
ARC
  5
4B4
  8
0
 10
438.08416873627903
 20
277.62612304336238
 30
0.0
 40
5.0
 50
0.0
 51
90.0
  0
ARC
  5
4B5
  8
0
 10
370.08416873627903
 20
277.62612304336238
 30
0.0
 40
5.0
 50
90.0
 51
180.0
  0
LINE
  5
4B6
  8
0
 10
365.08416873627903
 20
277.62612304336238
 30
0.0
 11
365.08416873627903
 21
272.6261230433625
 31
0.0
  0
CIRCLE
  5
4B7
  8
0
 10
370.08416873627903
 20
277.62612304336238
 30
0.0
 40
2.0
  0
CIRCLE
  5
4B8
  8
0
 10
438.08416873627903
 20
277.62612304336238
 30
0.0
 40
2.0
  0
LINE
  5
4B9
  8
0
 10
443.08416873627891
 20
260.8293884237828
 30
0.0
 11
443.08416873627903
 21
265.82938842378269
 31
0.0
  0
LINE
  5
4BA
  8
0
 10
438.08416873627903
 20
270.8293884237828
 30
0.0
 11
370.08416873627903
 21
270.8293884237828
 31
0.0
  0
LINE
  5
4BB
  8
0
 10
443.08416873627903
 20
260.8293884237828
 30
0.0
 11
365.08416873627903
 21
260.8293884237828
 31
0.0
  0
ARC
  5
4BC
  8
0
 10
438.08416873627903
 20
265.82938842378269
 30
0.0
 40
5.0
 50
0.0
 51
90.0
  0
ARC
  5
4BD
  8
0
 10
370.08416873627903
 20
265.82938842378269
 30
0.0
 40
5.0
 50
90.0
 51
180.0
  0
LINE
  5
4BE
  8
0
 10
365.08416873627903
 20
265.82938842378269
 30
0.0
 11
365.08416873627903
 21
260.8293884237828
 31
0.0
  0
CIRCLE
  5
4BF
  8
0
 10
370.08416873627903
 20
265.82938842378269
 30
0.0
 40
2.0
  0
CIRCLE
  5
4C0
  8
0
 10
438.08416873627903
 20
265.82938842378269
 30
0.0
 40
2.0
  0
LINE
  5
4C1
  8
0
 10
443.08416873627891
 20
249.03265380420299
 30
0.0
 11
443.08416873627903
 21
254.03265380420299
 31
0.0
  0
LINE
  5
4C2
  8
0
 10
438.08416873627903
 20
259.03265380420311
 30
0.0
 11
370.08416873627903
 21
259.03265380420311
 31
0.0
  0
LINE
  5
4C3
  8
0
 10
443.08416873627903
 20
249.03265380420299
 30
0.0
 11
365.08416873627903
 21
249.03265380420299
 31
0.0
  0
ARC
  5
4C4
  8
0
 10
438.08416873627903
 20
254.03265380420299
 30
0.0
 40
5.0
 50
0.0
 51
90.0
  0
ARC
  5
4C5
  8
0
 10
370.08416873627903
 20
254.03265380420299
 30
0.0
 40
5.0
 50
90.0
 51
180.0
  0
LINE
  5
4C6
  8
0
 10
365.08416873627903
 20
254.03265380420299
 30
0.0
 11
365.08416873627903
 21
249.03265380420299
 31
0.0
  0
CIRCLE
  5
4C7
  8
0
 10
370.08416873627903
 20
254.03265380420299
 30
0.0
 40
2.0
  0
CIRCLE
  5
4C8
  8
0
 10
438.08416873627903
 20
254.03265380420299
 30
0.0
 40
2.0
  0
LINE
  5
524
  8
0
 10
501.0
 20
339.75755583026432
 30
0.0
 11
476.99999999999977
 21
339.75755583026432
 31
0.0
  0
LINE
  5
525
  8
0
 10
501.0
 20
326.25755583026432
 30
0.0
 11
477.0
 21
326.25755583026432
 31
0.0
  0
LINE
  5
530
  8
0
 10
460.0
 20
268.5
 30
0.0
 11
452.0
 21
268.5
 31
0.0
  0
LINE
  5
531
  8
0
 10
460.0
 20
283.5
 30
0.0
 11
452.0
 21
283.5
 31
0.0
  0
ARC
  5
532
  8
0
 10
452.0
 20
285.5
 30
0.0
 40
2.0
 50
180.0
 51
270.0
  0
ARC
  5
533
  8
0
 10
452.0
 20
266.5
 30
0.0
 40
2.0
 50
90.0
 51
180.0
  0
LINE
  5
534
  8
0
 10
455.0
 20
359.9179168330071
 30
0.0
 11
523.0
 21
359.9179168330071
 31
0.0
  0
LINE
  5
535
  8
0
 10
528.0
 20
364.9179168330071
 30
0.0
 11
528.0
 21
406.91791683300698
 31
0.0
  0
ARC
  5
536
  8
0
 10
523.0
 20
364.9179168330071
 30
0.0
 40
5.0
 50
270.0
 51
0.0
  0
LINE
  5
537
  8
0
 10
523.0
 20
411.91791683300698
 30
0.0
 11
455.0
 21
411.91791683300698
 31
0.0
  0
LINE
  5
538
  8
0
 10
523.0
 20
359.9179168330071
 30
0.0
 11
455.0
 21
359.9179168330071
 31
0.0
  0
LINE
  5
539
  8
0
 10
523.0
 20
359.9179168330071
 30
0.0
 11
455.0
 21
359.9179168330071
 31
0.0
  0
ARC
  5
53A
  8
0
 10
523.0
 20
406.91791683300698
 30
0.0
 40
5.0
 50
0.0
 51
90.0
  0
ARC
  5
53B
  8
0
 10
455.0
 20
406.91791683300698
 30
0.0
 40
5.0
 50
90.0
 51
180.0
  0
LINE
  5
53C
  8
0
 10
450.0
 20
406.91791683300698
 30
0.0
 11
450.0
 21
369.9179168330071
 31
0.0
  0
LINE
  5
53D
  8
0
 10
476.99999999999977
 20
394.96791683300711
 30
0.0
 11
477.0
 21
381.46791683300711
 31
0.0
  0
LINE
  5
53E
  8
0
 10
501.0
 20
394.96791683300711
 30
0.0
 11
501.0
 21
381.46791683300711
 31
0.0
  0
LINE
  5
53F
  8
0
 10
450.0
 20
369.9179168330071
 30
0.0
 11
450.0
 21
364.9179168330071
 31
0.0
  0
ARC
  5
540
  8
0
 10
455.0
 20
364.9179168330071
 30
0.0
 40
5.0
 50
180.0
 51
270.0
  0
CIRCLE
  5
541
  8
0
 10
455.0
 20
406.91791683300698
 30
0.0
 40
2.0
  0
CIRCLE
  5
542
  8
0
 10
455.0
 20
364.9179168330071
 30
0.0
 40
2.0
  0
CIRCLE
  5
543
  8
0
 10
523.0
 20
364.9179168330071
 30
0.0
 40
2.0
  0
CIRCLE
  5
544
  8
0
 10
523.0
 20
406.91791683300698
 30
0.0
 40
2.0
  0
POINT
  5
545
  8
0
 10
523.0
 20
359.9179168330071
 30
0.0
  0
CIRCLE
  5
546
  8
0
 10
500.49999999999989
 20
397.21791683300711
 30
0.0
 40
1.1000000000000001
  0
CIRCLE
  5
547
  8
0
 10
477.30000000000001
 20
397.21791683300711
 30
0.0
 40
1.1000000000000001
  0
CIRCLE
  5
548
  8
0
 10
500.49999999999989
 20
375.21791683300711
 30
0.0
 40
1.1000000000000001
  0
CIRCLE
  5
549
  8
0
 10
477.30000000000001
 20
375.21791683300722
 30
0.0
 40
1.1000000000000001
  0
LINE
  5
54A
  8
0
 10
501.0
 20
394.96791683300711
 30
0.0
 11
476.99999999999977
 21
394.96791683300711
 31
0.0
  0
LINE
  5
54B
  8
0
 10
501.0
 20
381.46791683300711
 30
0.0
 11
477.0
 21
381.46791683300711
 31
0.0
  0
LINE
  5
54C
  8
0
 10
529.06098955915695
 20
425.6886090975616
 30
0.0
 11
529.06098955915695
 21
430.6886090975616
 31
0.0
  0
LINE
  5
54D
  8
0
 10
524.06098955915695
 20
435.68860909756171
 30
0.0
 11
456.06098955915689
 21
435.68860909756171
 31
0.0
  0
LINE
  5
54E
  8
0
 10
529.06098955915695
 20
425.6886090975616
 30
0.0
 11
451.06098955915689
 21
425.6886090975616
 31
0.0
  0
ARC
  5
54F
  8
0
 10
524.06098955915695
 20
430.6886090975616
 30
0.0
 40
5.0
 50
0.0
 51
90.0
  0
ARC
  5
550
  8
0
 10
456.06098955915689
 20
430.6886090975616
 30
0.0
 40
5.0
 50
90.0
 51
180.0
  0
LINE
  5
551
  8
0
 10
451.06098955915689
 20
430.6886090975616
 30
0.0
 11
451.06098955915689
 21
425.6886090975616
 31
0.0
  0
CIRCLE
  5
552
  8
0
 10
456.06098955915689
 20
430.6886090975616
 30
0.0
 40
2.0
  0
CIRCLE
  5
553
  8
0
 10
524.06098955915695
 20
430.6886090975616
 30
0.0
 40
2.0
  0
LINE
  5
554
  8
0
 10
529.06098955915695
 20
413.89187447798201
 30
0.0
 11
529.06098955915695
 21
418.89187447798201
 31
0.0
  0
LINE
  5
555
  8
0
 10
524.06098955915695
 20
423.89187447798201
 30
0.0
 11
456.06098955915689
 21
423.89187447798201
 31
0.0
  0
LINE
  5
556
  8
0
 10
529.06098955915695
 20
413.89187447798201
 30
0.0
 11
451.06098955915689
 21
413.89187447798201
 31
0.0
  0
ARC
  5
557
  8
0
 10
524.06098955915695
 20
418.89187447798201
 30
0.0
 40
5.0
 50
0.0
 51
90.0
  0
ARC
  5
558
  8
0
 10
456.06098955915689
 20
418.89187447798201
 30
0.0
 40
5.0
 50
90.0
 51
180.0
  0
LINE
  5
559
  8
0
 10
451.06098955915689
 20
418.89187447798201
 30
0.0
 11
451.06098955915689
 21
413.89187447798201
 31
0.0
  0
CIRCLE
  5
55A
  8
0
 10
456.06098955915689
 20
418.89187447798201
 30
0.0
 40
2.0
  0
CIRCLE
  5
55B
  8
0
 10
524.06098955915695
 20
418.89187447798201
 30
0.0
 40
2.0
  0
ENDSEC
  0
EOF
